# xmcd
#
# Track frame offsets: 
#        150
#        17431
#        37247
#        54011
#        76414
#        94802
#        118413
#        133947
#        145040
#        169455
#        192542
#        217196
#
# Disc length: 3170 seconds
#
# Revision: 0
# Processed by: cddbd v1.5.2PL0 Copyright (c) Steve Scherf et al.
# Submitted via: ExactAudioCopy v1.0b3
#
DISCID=b40c600c
DTITLE=BDL  (Big Daddy Lee) - The Reason
DYEAR=2012
DGENRE=Blues
TTITLE0=Back to Memphis
TTITLE1=Sue Ann
TTITLE2=Feeling Blue
TTITLE3=Let's Take a Ride
TTITLE4=Looking for My Baby
TTITLE5=She's the Reason (I Love to Play the Blues)
TTITLE6=Killing Time
TTITLE7=Going Out Tonight
TTITLE8=Neptune City Blues
TTITLE9=Fat City Blues
TTITLE10=Hey, Hey
TTITLE11=Rose Marie
EXTD=
EXTT0=
EXTT1=
EXTT2=
EXTT3=
EXTT4=
EXTT5=
EXTT6=
EXTT7=
EXTT8=
EXTT9=
EXTT10=
EXTT11=
PLAYORDER=
